<?xml version="1.0" encoding="UTF-8"?>
<svg version="1.1" xmlns="http://www.w3.org/2000/svg" width="2400" height="2400">
<path d="M0 0 C792 0 1584 0 2400 0 C2400 792 2400 1584 2400 2400 C1608 2400 816 2400 0 2400 C0 1608 0 816 0 0 Z " fill="#FFFFFF" transform="translate(0,0)"/>
<path d="M0 0 C792 0 1584 0 2400 0 C2400 792 2400 1584 2400 2400 C1608 2400 816 2400 0 2400 C0 1608 0 816 0 0 Z M1608 204 C1606.98518555 204.16628906 1605.97037109 204.33257812 1604.92480469 204.50390625 C1557.01879423 212.44169258 1511.62447709 230.14718014 1468 251 C1467.11022461 251.42490723 1466.22044922 251.84981445 1465.30371094 252.28759766 C1451.52323872 258.91514844 1438.22033066 266.3240144 1425 274 C1423.9279834 274.62181152 1422.8559668 275.24362305 1421.75146484 275.88427734 C1397.11801029 290.21981491 1373.23049249 305.48743327 1350 322 C1349.18418457 322.57878906 1348.36836914 323.15757812 1347.52783203 323.75390625 C1337.15927953 331.126719 1326.99113808 338.73890595 1316.92382812 346.51708984 C1315.15730649 347.87874624 1313.38506226 349.23236148 1311.609375 350.58203125 C1303.6410821 356.65638261 1295.84897591 362.92853427 1288.10009766 369.27929688 C1285.97913796 371.01709319 1283.85485744 372.75077311 1281.73046875 374.484375 C1269.62826587 384.38217435 1257.76806021 394.53104395 1246.18359375 405.03125 C1244.18262015 406.83534784 1242.1604969 408.61007017 1240.125 410.375 C1235.21197913 414.65789395 1230.42560919 419.07837582 1225.63378906 423.49560547 C1223.95361048 425.04271552 1222.27001709 426.58604425 1220.5859375 428.12890625 C1215.40893481 432.87979383 1210.28788253 437.64544319 1205.3671875 442.6640625 C1203.70058069 444.29257544 1201.92606798 445.69027378 1200 447 C1196.74792908 445.58261511 1194.68638933 443.87473588 1192.25 441.3125 C1189.72296354 438.72078619 1187.18699116 436.22913949 1184.4375 433.875 C1180.40347251 430.41272443 1176.55342748 426.7718743 1172.6875 423.125 C1167.51330792 418.25641063 1162.23015529 413.64230178 1156.67578125 409.20703125 C1153.68502339 406.74020178 1150.83656394 404.14010965 1148 401.5 C1143.42077876 397.244614 1138.70713122 393.22676612 1133.8359375 389.3046875 C1131.29760886 387.24185844 1128.80141012 385.14128603 1126.31542969 383.01635742 C1119.65973957 377.32787842 1112.85040817 371.87065232 1105.93359375 366.50390625 C1103.87770025 364.90487797 1101.82911162 363.29679961 1099.78125 361.6875 C1089.76505529 353.83209489 1079.61022723 346.18884288 1069.32177734 338.69384766 C1067.09127349 337.06658838 1064.86745137 335.43056524 1062.64453125 333.79296875 C1050.36597182 324.78906185 1037.71915922 316.36566701 1025 308 C1023.87392334 307.25435791 1023.87392334 307.25435791 1022.72509766 306.49365234 C1001.9974106 292.76902944 980.67599686 280.00935156 958.68554688 268.41845703 C956.19474355 267.10286 953.71323066 265.77152951 951.234375 264.43359375 C898.39177756 236.03515256 839.91927832 212.47427082 780 205 C779.01394272 204.87399918 779.01394272 204.87399918 778.00796509 204.74545288 C765.42226793 203.16813451 752.99051757 202.63342548 740.3125 202.6875 C738.9381076 202.69073273 738.9381076 202.69073273 737.53594971 202.69403076 C701.77097251 202.82857035 667.57735956 209.72961335 636 227 C635.37673828 227.33725098 634.75347656 227.67450195 634.11132812 228.02197266 C578.37552011 258.57227117 546.30962791 319.39301034 529.05859375 378.23925781 C519.6268031 411.74647718 513.84261051 446.32394827 511 481 C510.89703613 482.22509277 510.79407227 483.45018555 510.68798828 484.71240234 C507.3890917 525.93036926 507.81286116 567.78652279 511 609 C511.06316406 609.82211975 511.12632812 610.6442395 511.19140625 611.49127197 C516.79450373 683.54703694 529.2211945 754.97050659 547 825 C545.65035156 825.13728516 545.65035156 825.13728516 544.2734375 825.27734375 C538.57151326 826.10467621 533.12570635 827.89165998 527.625 829.5625 C526.99685394 829.75262665 526.36870789 829.9427533 525.7215271 830.13864136 C463.93189372 848.88107514 403.08774813 870.64469987 345 899 C344.2618103 899.35984985 343.52362061 899.71969971 342.76306152 900.0904541 C322.84220317 909.81275862 303.09474779 919.72064889 284 931 C283.02949707 931.5657373 282.05899414 932.13147461 281.05908203 932.71435547 C241.91962595 955.53997082 204.76899071 981.71486068 171.53710938 1012.57617188 C169.89968271 1014.09292414 168.25522489 1015.60176903 166.609375 1017.109375 C159.12052434 1023.97566241 151.74657208 1030.82554077 145.12109375 1038.54296875 C143.48471453 1040.43851669 141.83097174 1042.310978 140.16015625 1044.17578125 C99.3250996 1090.05274962 70.91523396 1147.87214165 74.12011719 1210.34130859 C77.15826394 1255.8264293 97.12284278 1297.8551833 124 1334 C124.42877441 1334.58040039 124.85754883 1335.16080078 125.29931641 1335.75878906 C141.46534981 1357.54477399 160.38336812 1378.88314721 181.125 1396.40625 C183.40383378 1398.34325871 185.60324657 1400.35905625 187.8125 1402.375 C208.60800715 1421.0941025 231.53287321 1437.80049763 255 1453 C256.2058374 1453.78262207 256.2058374 1453.78262207 257.43603516 1454.58105469 C333.71735762 1503.95380234 416.37863185 1539.5338038 530.5625 1577.4375 C532.41584961 1577.9946167 532.41584961 1577.9946167 534.30664062 1578.56298828 C540.06171446 1580.36661613 540.06171446 1580.36661613 546 1581 C545.7006958 1582.0223877 545.4013916 1583.04477539 545.09301758 1584.09814453 C541.40488541 1596.909551 538.46875812 1609.84027667 535.6875 1622.875 C535.45011108 1623.98326141 535.21272217 1625.09152283 534.96813965 1626.23336792 C520.45375814 1694.1681645 510.52316018 1762.94258166 508.375 1832.4375 C508.35426422 1833.1071579 508.33352844 1833.7768158 508.31216431 1834.46676636 C506.35168465 1900.01859323 512.12049065 1966.01478346 531 2029 C531.28987793 2029.96760254 531.57975586 2030.93520508 531.87841797 2031.93212891 C537.91328004 2051.72774478 546.30376331 2070.73193253 556 2089 C556.34885254 2089.6604834 556.69770508 2090.3209668 557.05712891 2091.00146484 C565.98237645 2107.75784561 577.1013858 2122.67448617 589.91015625 2136.6875 C591.68356841 2138.64985514 593.38150245 2140.64661409 595.0625 2142.6875 C598.37143954 2146.55091049 602.08723103 2149.76079063 606 2153 C606.50644043 2153.42941895 607.01288086 2153.85883789 607.53466797 2154.30126953 C653.54164494 2193.22202221 711.7516314 2203.16770458 770.39453125 2198.68359375 C846.68766054 2192.21122819 921.99953691 2160.21321852 987.34814453 2121.56738281 C990.14891477 2119.91198372 992.96295007 2118.28055228 995.77734375 2116.6484375 C1022.42264343 2101.05544442 1048.4888731 2083.69879137 1073.25 2065.25 C1074.03101074 2064.67056641 1074.81202148 2064.09113281 1075.61669922 2063.49414062 C1077.25233096 2062.27937891 1078.88693513 2061.06323239 1080.52050781 2059.84570312 C1083.02743669 2057.97957647 1085.54074236 2056.12228529 1088.0546875 2054.265625 C1097.60175805 2047.18936643 1106.90396869 2039.89899392 1116.02734375 2032.28515625 C1119.76857814 2029.17003942 1123.58904173 2026.16841108 1127.4375 2023.1875 C1132.34763805 2019.37424176 1137.00854781 2015.38006187 1141.5859375 2011.16796875 C1144.09523872 2008.91447008 1146.68241626 2006.79838854 1149.3125 2004.6875 C1154.77097248 2000.27278642 1159.89077362 1995.55251633 1165.01953125 1990.765625 C1167.26598689 1988.67089076 1169.54473428 1986.62670331 1171.875 1984.625 C1176.45701908 1980.66295813 1180.84827422 1976.49692304 1185.26733398 1972.35546875 C1190.79382456 1967.17954692 1196.37834163 1962.07234872 1202 1957 C1209.68895504 1963.51889667 1217.23972651 1970.15246514 1224.3125 1977.33984375 C1226.66059028 1979.64988627 1229.14880816 1981.77762502 1231.64453125 1983.92578125 C1234.01638385 1986.01442757 1236.32905475 1988.15548105 1238.63867188 1990.31225586 C1244.04258863 1995.35754045 1249.55222332 2000.15787206 1255.3203125 2004.7890625 C1258.13253315 2007.1093495 1260.81797263 2009.53071134 1263.5 2012 C1268.31336603 2016.42016148 1273.28568879 2020.57527939 1278.37158203 2024.67626953 C1280.20473201 2026.16642533 1282.02297784 2027.67362785 1283.83984375 2029.18359375 C1293.28409733 2037.02750312 1302.86100584 2044.67123266 1312.59619141 2052.15087891 C1315.11442698 2054.08802254 1317.62546637 2056.03428347 1320.13671875 2057.98046875 C1330.05116685 2065.63221499 1340.10358114 2072.96571349 1350.5078125 2079.9375 C1353.85642949 2082.19049862 1357.12229083 2084.53648816 1360.375 2086.92578125 C1365.76094284 2090.8645032 1371.27478885 2094.56179428 1376.875 2098.1875 C1377.87039795 2098.83332031 1378.8657959 2099.47914062 1379.89135742 2100.14453125 C1407.43882492 2117.95511161 1435.67747259 2134.30389196 1465 2149 C1466.08168457 2149.54285645 1467.16336914 2150.08571289 1468.27783203 2150.64501953 C1536.52975399 2184.68143871 1620.02662801 2212.0081237 1697 2197 C1697.90766113 2196.82839355 1698.81532227 2196.65678711 1699.75048828 2196.47998047 C1725.82297309 2191.42100518 1751.57769445 2182.02906688 1773 2166 C1773.53995605 2165.59845703 1774.07991211 2165.19691406 1774.63623047 2164.78320312 C1840.07785365 2115.78947454 1869.13430859 2035.31422353 1883.30859375 1948.90710449 C1885.82373986 1931.35109885 1887.82296486 1913.6976142 1889 1896 C1889.13136353 1894.15160522 1889.13136353 1894.15160522 1889.26538086 1892.26586914 C1890.31201073 1876.21793147 1890.20018649 1860.13677113 1890.1875 1844.0625 C1890.18723312 1843.30588326 1890.18696625 1842.54926651 1890.18669128 1841.76972198 C1890.17683887 1819.52023994 1890.06168929 1797.3319976 1888.18035889 1775.14794922 C1887.98810075 1772.85828822 1887.80626064 1770.56793895 1887.62548828 1768.27734375 C1883.3371648 1714.60504227 1874.73930763 1661.37831233 1863.1875 1608.8125 C1862.95075562 1607.73452148 1862.71401123 1606.65654297 1862.47009277 1605.54589844 C1861.79196357 1602.47325455 1861.10682313 1599.40228689 1860.41796875 1596.33203125 C1860.11837502 1594.98338737 1860.11837502 1594.98338737 1859.81272888 1593.60749817 C1858.46136013 1587.6536452 1856.82431122 1581.82593498 1855 1576 C1855.95777344 1575.77578369 1856.91554688 1575.55156738 1857.90234375 1575.32055664 C1868.13003532 1572.87500563 1878.04973992 1569.82609574 1888 1566.4375 C1889.58534173 1565.90153741 1891.17079334 1565.36589977 1892.75634766 1564.83056641 C1895.97583239 1563.74233792 1899.19387486 1562.64996828 1902.41113281 1561.55517578 C1905.91956996 1560.36306028 1909.43347463 1559.18885014 1912.95162964 1558.02577209 C1948.41001229 1546.29427044 1983.15300698 1532.39147797 2017.11303711 1516.86206055 C2018.9756803 1516.01111048 2020.84010393 1515.16418686 2022.70507812 1514.31835938 C2047.41624428 1503.08843319 2071.69942592 1491.18848837 2095.20556641 1477.60009766 C2098.03294992 1475.98113282 2100.8777161 1474.39800101 2103.73046875 1472.82421875 C2116.68961486 1465.65551604 2129.14949774 1457.91703542 2141.46435547 1449.69238281 C2143.73201873 1448.1788606 2146.00639841 1446.67642818 2148.28515625 1445.1796875 C2171.21760416 1430.08234796 2193.61792964 1413.551553 2213.8515625 1394.96484375 C2215.82501082 1393.16003556 2217.83863832 1391.42048535 2219.875 1389.6875 C2225.04310206 1385.19304057 2229.80271692 1380.27568571 2234.61181641 1375.40478516 C2237.57447266 1372.40669791 2240.55677412 1369.4311379 2243.578125 1366.4921875 C2249.01171277 1361.16981351 2254.0324331 1355.745199 2258.7734375 1349.78125 C2261.01469102 1346.98164911 2263.34562055 1344.27816477 2265.6875 1341.5625 C2292.54573628 1309.28257006 2313.12476281 1269.60736187 2320 1228 C2320.11569336 1227.32549805 2320.23138672 1226.65099609 2320.35058594 1225.95605469 C2327.122027 1184.90544906 2317.63212678 1142.26847079 2298 1106 C2297.62117676 1105.28392578 2297.24235352 1104.56785156 2296.85205078 1103.83007812 C2281.32647361 1074.49621417 2260.07126548 1048.88226141 2236.67138672 1025.48608398 C2235.1282647 1023.94076934 2233.59335694 1022.38759554 2232.05859375 1020.83398438 C2226.43289362 1015.17728803 2220.69597321 1009.91709931 2214.43164062 1004.96411133 C2211.98075389 1002.98445432 2209.67494943 1000.90207878 2207.375 998.75 C2200.31299702 992.33303036 2192.63237716 986.7118064 2185 981 C2183.86763916 980.14631836 2183.86763916 980.14631836 2182.71240234 979.27539062 C2163.85685933 965.07053379 2144.19143376 952.21867643 2124 940 C2123.26861816 939.5570459 2122.53723633 939.1140918 2121.78369141 938.65771484 C2109.73265251 931.39135991 2097.40546909 924.63915609 2085 918 C2083.65107666 917.27707764 2083.65107666 917.27707764 2082.27490234 916.53955078 C2040.51952942 894.24636397 1997.25436034 875.71675679 1953 859 C1951.85588654 858.56717712 1951.85588654 858.56717712 1950.68865967 858.12561035 C1924.99770356 848.42450183 1898.90530883 840.06128851 1872.70623779 831.84942627 C1868.16818558 830.42503527 1863.63293079 828.99179955 1859.09765625 827.55859375 C1858.27776718 827.29957779 1857.45787811 827.04056183 1856.61314392 826.7736969 C1854.74206375 826.18256651 1852.8710265 825.59130026 1851 825 C1851.28609131 823.76701172 1851.57218262 822.53402344 1851.86694336 821.26367188 C1866.17117672 759.42132062 1877.2797824 697.25640113 1883 634 C1883.0835675 633.07838074 1883.16713501 632.15676147 1883.25323486 631.20721436 C1887.85097669 579.62193573 1888.39145662 526.54452053 1883 475 C1882.92738953 474.28503357 1882.85477905 473.57006714 1882.77996826 472.83343506 C1874.89782968 395.28122585 1853.03252094 314.6875987 1798 257 C1797.20078125 256.14792969 1796.4015625 255.29585937 1795.578125 254.41796875 C1780.7208462 239.00232816 1762.47658528 226.76336795 1743 218 C1742.25153809 217.66226563 1741.50307617 217.32453125 1740.73193359 216.9765625 C1727.22089228 210.99040886 1713.45062009 207.01891131 1699 204 C1697.7629834 203.73098877 1697.7629834 203.73098877 1696.50097656 203.45654297 C1668.51452948 197.6457487 1636.03771032 199.11718998 1608 204 Z " fill="#000000" transform="translate(0,0)"/>
<path d="M0 0 C4.63916861 -0.00030165 9.27827584 -0.00869648 13.91743195 -0.02069956 C64.10705446 -0.14821227 114.20913241 0.98513226 164.30714142 4.11839956 C167.93417093 4.34313165 171.5618332 4.55722924 175.18940461 4.77300161 C189.93725322 5.65556004 189.93725322 5.65556004 194.52839386 5.98911184 C196.93624045 6.12437051 199.35001586 6.17236546 201.76154816 6.14929861 C210.71011568 6.23016049 210.71011568 6.23016049 214.2699405 8.83029836 C216.24763509 11.15330654 217.80837776 13.5102372 219.37690461 16.12651724 C220.27714356 17.49911955 220.27714356 17.49911955 221.19556916 18.8994512 C223.09799844 21.82252266 224.93230529 24.78199487 226.76752961 27.74761099 C228.01195942 29.68200403 229.26062739 31.61367747 230.51362336 33.54253286 C234.07497311 39.05326135 237.55392666 44.61260669 241.01752961 50.18511099 C241.97697047 51.7198296 242.93697445 53.25419639 243.89765656 54.78813833 C245.55992105 57.44346132 247.21946267 60.10044579 248.87641633 62.7590856 C251.78601841 67.42234227 254.74405418 72.05436485 257.70502961 76.68511099 C276.04026572 105.4518993 293.82378389 134.5275402 310.99526703 164.00189871 C313.224299 167.82785504 315.46188892 171.64866151 317.70502961 175.46636099 C324.81205259 187.57618613 331.75146431 199.76995475 338.58393586 212.03667349 C341.33348217 216.9711202 344.11533789 221.88624699 346.90961945 226.79546255 C353.88894168 239.06703124 360.60702939 251.46901434 367.26459992 263.91753286 C368.97216424 267.10054692 370.6916718 270.27675906 372.41596711 273.45073599 C379.59544708 286.68010792 386.59848214 299.98971496 393.44990265 313.39140981 C394.16378819 314.78751952 394.87773714 316.1835968 395.59174836 317.57964224 C396.12622841 318.62484785 396.12622841 318.62484785 396.67150605 319.69116873 C398.97568013 324.18560866 401.31567173 328.65965725 403.68072236 333.12235159 C405.28879846 336.15802193 406.88674635 339.19897198 408.48417389 342.24025625 C409.25115556 343.69353466 410.02308886 345.14421147 410.8001529 346.59212393 C411.87765878 348.60099902 412.93752025 350.61829237 413.99409211 352.63823599 C414.90795685 354.35768423 414.90795685 354.35768423 415.84028351 356.1118688 C417.46501147 360.35327806 416.63359938 362.75676891 414.8636142 366.86043447 C414.38081498 367.82238729 413.89801575 368.78434011 413.40058625 369.77544302 C412.57821221 371.42469274 412.57821221 371.42469274 411.73922455 373.10726064 C411.13555479 374.30257073 410.53170353 375.49778917 409.92768586 376.69292349 C409.3024149 377.94039954 408.67762208 379.18811536 408.05328095 380.43605703 C406.73958549 383.05884549 405.42199627 385.67962568 404.10126984 388.29888052 C402.43864478 391.59627661 400.78268939 394.89695895 399.12930501 398.19899648 C392.26084283 411.91431329 385.32213158 425.58761724 378.11179841 439.12718862 C376.67172063 441.83545213 375.24353528 444.54990483 373.81518281 447.26436514 C366.62029974 460.93009655 359.35394091 474.53906512 351.68793976 487.94805044 C347.87961399 494.61826471 344.20968221 501.35374034 340.58002961 508.12261099 C335.14187919 518.23793079 329.43329672 528.17186742 323.60737336 538.06792349 C320.55308122 543.25646997 317.55091442 548.47329698 314.55952179 553.69829458 C307.95015873 565.23422606 301.15468668 576.64007278 294.22456086 587.98467153 C289.81801474 595.20060256 285.48041758 602.45300574 281.20502961 609.74761099 C276.35608739 618.00331463 271.33227038 626.12797863 266.18549836 634.20073599 C262.56670248 639.8777292 259.0140066 645.59550802 255.45502961 651.31011099 C249.86444926 660.27110929 244.19939164 669.17709195 238.42719758 678.02202505 C236.88142903 680.39395253 235.3416803 682.76972047 233.80268586 685.14604849 C228.66178703 693.07980335 223.50425919 701.00168264 218.26752961 708.87261099 C217.84914826 709.50247915 217.43076691 710.13234731 216.99970734 710.78130239 C214.14132832 715.06131227 214.14132832 715.06131227 213.01752961 716.18511099 C211.61995833 716.39600116 210.21294801 716.54492205 208.80488312 716.66753286 C207.90543473 716.74685049 207.00598633 716.82616812 206.07928193 716.90788931 C204.59658562 717.02964529 204.59658562 717.02964529 203.08393586 717.15386099 C202.05289231 717.24051016 201.02184876 717.32715933 199.95956147 717.41643423 C137.28857982 722.52803203 74.23240971 723.55118568 11.38008589 723.44224924 C6.53215471 723.43471439 1.68430545 723.43743624 -3.16362274 723.44585317 C-53.75989868 723.53128955 -104.30927781 722.51301622 -154.84111297 719.80742544 C-158.49791957 719.61175126 -162.15516392 719.42628662 -165.81254852 719.24175161 C-168.21947721 719.11793908 -170.62637967 718.99361499 -173.03325164 718.86870474 C-174.08813278 718.81451879 -175.14301391 718.76033285 -176.22986114 718.70450491 C-178.19605205 718.59859991 -180.16177733 718.48354153 -182.12681854 718.35809988 C-184.08710136 718.2393504 -186.0494874 718.15234905 -188.01243865 718.09207815 C-195.28639748 717.73645651 -195.28639748 717.73645651 -198.59038055 715.11943716 C-199.18641082 714.18591421 -199.7824411 713.25239126 -200.39653289 712.29057974 C-201.12130828 711.20051626 -201.84608367 710.11045278 -202.59282196 708.98735708 C-202.97329681 708.38002737 -203.35377166 707.77269766 -203.74577606 707.14696401 C-205.07410343 705.03974722 -206.45492714 702.9746948 -207.84868133 700.91020864 C-211.06247101 696.13458985 -214.21128911 691.31792884 -217.35747039 686.49761099 C-218.42743278 684.86521999 -219.49774381 683.23305746 -220.56840789 681.60112661 C-246.77509242 641.62310592 -272.20197226 601.16084823 -296.37895477 559.91997427 C-297.47517855 558.05031854 -298.5729048 556.18154314 -299.67192352 554.31352895 C-308.10429385 539.97992538 -316.33312469 525.54292041 -324.41313446 511.00786489 C-325.82677171 508.46516515 -327.24370181 505.92434326 -328.66215789 503.38432974 C-350.3006888 464.59949002 -370.91822186 425.27324259 -390.86549652 385.59429067 C-391.55871857 384.21591172 -392.25312208 382.83812619 -392.9488095 381.46098989 C-393.91087283 379.5547125 -394.86737826 377.64574805 -395.82231414 375.73589224 C-396.36235076 374.65992788 -396.90238739 373.58396353 -397.45878875 372.47539419 C-397.96160369 371.38960073 -398.46441864 370.30380728 -398.98247039 369.18511099 C-399.43562716 368.29733701 -399.43562716 368.29733701 -399.89793861 367.39162821 C-401.72798245 363.38456767 -402.13420092 361.72764353 -400.90542877 357.33400625 C-400.24617912 355.96919502 -399.5560399 354.6190277 -398.84160125 353.28227895 C-398.47117202 352.53616354 -398.10074279 351.79004812 -397.71908844 351.02132314 C-396.48815655 348.55901652 -395.21851562 346.11902525 -393.94731414 343.67729849 C-393.0726226 341.94899951 -392.20031276 340.2194933 -391.33026397 338.48885244 C-389.02678859 333.92400643 -386.68958311 329.37725017 -384.34544647 324.83318228 C-382.00922799 320.28838457 -379.70793084 315.72599283 -377.40239227 311.16557974 C-368.92023386 294.42437223 -360.28827126 277.7828765 -351.18483245 261.36992544 C-349.26586857 257.88297241 -347.40431826 254.36632886 -345.54887664 250.84526724 C-345.21528137 250.21263967 -344.88168609 249.58001211 -344.53798187 248.92821401 C-343.87721858 247.67441431 -343.21669507 246.42048821 -342.55641448 245.16643423 C-335.80672736 232.36151833 -328.87296975 219.68090632 -321.66752899 207.12554067 C-319.84428599 203.94397901 -318.03189766 200.75638607 -316.22075164 197.56792349 C-301.87941878 172.34732575 -287.20907578 147.33450466 -272.06450164 122.58745474 C-270.68814402 120.33828496 -269.3131203 118.08829831 -267.93950164 115.83745474 C-258.16121982 99.81771644 -248.16212615 83.95258631 -237.98247039 68.18511099 C-237.45153778 67.35978872 -236.92060516 66.53446645 -236.37358367 65.68413442 C-229.358823 54.78033788 -222.20947642 43.96595155 -215.03062713 33.16973013 C-214.05088537 31.69607229 -213.07182516 30.22196109 -212.09349334 28.74736685 C-210.70609518 26.65724814 -209.31543739 24.56933498 -207.92387664 22.48198599 C-207.51489639 21.86494802 -207.10591613 21.24791006 -206.68454254 20.61217397 C-205.88185523 19.41119061 -205.06512432 18.21947136 -204.23443878 17.03768057 C-202.93040345 15.16815712 -202.93040345 15.16815712 -201.78213775 13.00807852 C-199.72571875 9.61999474 -198.22900938 7.57990422 -194.36770904 6.35698599 C-191.03714501 5.90229373 -187.77571771 5.71245014 -184.41606414 5.59917349 C-183.17026077 5.52704138 -181.92445739 5.45490927 -180.6409024 5.38059133 C-177.26745443 5.19281303 -173.89577205 5.03890201 -170.52015197 4.90075201 C-166.99527259 4.74862294 -163.47275487 4.55365964 -159.94975555 4.36357778 C-153.5939657 4.02709978 -147.23711918 3.72799236 -140.8786 3.44825357 C-135.6274283 3.21666167 -130.37789133 2.9596049 -125.12842071 2.69255728 C-114.44968801 2.15042608 -103.7702207 1.65795072 -93.08391082 1.2922582 C-90.90029013 1.21681942 -88.716785 1.13799775 -86.53337371 1.05672354 C-57.69513802 0.00297724 -28.85435368 -0.00275087 0 0 Z " fill="#000000" transform="translate(1190.9824703931808,838.8148890137672)"/>
<path d="M0 0 C0.31525635 1.0115918 0.6305127 2.02318359 0.95532227 3.06542969 C20.55784639 65.85649211 42.74902724 127.62101222 67.92303467 188.39935303 C68.96788009 190.92243711 70.00984454 193.44669394 71.05126953 195.97119141 C80.61292482 219.11993091 90.67877157 242.03946232 100.89453125 264.90625 C101.26569061 265.73885345 101.63684998 266.57145691 102.01925659 267.42929077 C102.36844147 268.20865997 102.71762634 268.98802917 103.07739258 269.79101562 C103.56449203 270.88700073 103.56449203 270.88700073 104.06143188 272.00512695 C105.07232851 274.22836715 105.07232851 274.22836715 106.8190918 277.13085938 C108.82868709 282.0133824 107.48282709 285.72340553 105.67163086 290.51220703 C105.11166668 291.76478853 104.54221267 293.01315776 103.96484375 294.2578125 C103.65496017 294.94543671 103.3450766 295.63306091 103.02580261 296.34152222 C102.35539656 297.82705086 101.6810744 299.31081722 101.00323486 300.79296875 C99.53682958 304.00174335 98.09213893 307.22014388 96.6461792 310.43817139 C95.89028968 312.12026001 95.13348281 313.80193667 94.37579346 315.48321533 C75.49872287 357.39182421 58.19525183 399.98871752 42 443 C41.71549988 443.75379944 41.43099976 444.50759888 41.13787842 445.28424072 C26.19305005 484.890869 12.12120951 524.86951873 -0.16235352 565.38525391 C-1 568 -1 568 -2 570 C-11.95797925 568.34713869 -21.40996264 565.19953794 -31 562.125 C-31.9036026 561.83655212 -32.8072052 561.54810425 -33.7381897 561.25091553 C-84.79589723 544.93169438 -134.54909901 525.37720788 -182.63378906 501.65966797 C-185.86344075 500.06732882 -189.09917957 498.48798704 -192.3359375 496.91015625 C-243.26135406 471.93880137 -296.6026118 439.74727294 -336.33984375 398.66015625 C-338.1627788 396.78154483 -338.1627788 396.78154483 -341.0625 394.5 C-344.13324276 391.88660191 -346.61645176 389.08977659 -349.22265625 386.02734375 C-350.86880511 384.14964868 -352.57735116 382.41872302 -354.375 380.6875 C-379.97287702 355.37404383 -402.79797623 317.60145942 -403.375 280.9375 C-403.32526788 245.90433015 -383.44906693 215.4010849 -361 190 C-359.98292969 188.81664062 -359.98292969 188.81664062 -358.9453125 187.609375 C-348.77877381 175.9791712 -337.79292261 164.56083293 -325.60546875 155.046875 C-323.20211896 153.15878611 -320.88957715 151.19136572 -318.5847168 149.18505859 C-297.98936122 131.34696137 -274.53574223 115.64910393 -250.90869141 102.09570312 C-248.73901784 100.85018062 -246.57888787 99.58877197 -244.41796875 98.328125 C-171.28090511 55.88378262 -92.67826307 26.56746256 -12 2 C-10.80221924 1.62504395 -9.60443848 1.25008789 -8.37036133 0.86376953 C-5.38651251 0.09905696 -3.05182587 -0.18495914 0 0 Z " fill="#000000" transform="translate(574,918)"/>
<path d="M0 0 C7.32479657 1.10702457 14.57166154 2.49571366 21.82421875 3.99609375 C108.25000885 21.83804466 195.65193007 33.77387301 283.55175781 41.4909668 C284.634384 41.58670486 285.71701019 41.68244293 286.83244324 41.78108215 C288.84495699 41.95819411 290.85773237 42.13236814 292.87080383 42.30302429 C293.75721054 42.38075577 294.64361725 42.45848724 295.55688477 42.53857422 C296.32331802 42.60406464 297.08975128 42.66955505 297.87940979 42.73703003 C303.56068883 43.4415536 303.56068883 43.4415536 306.3046875 46.9296875 C307.17144338 48.2382323 308.02745022 49.55393429 308.875 50.875 C309.85251372 52.34701869 310.83311971 53.81698743 311.81640625 55.28515625 C312.59201904 56.4455542 312.59201904 56.4455542 313.38330078 57.62939453 C316.0906512 61.59924844 318.94812179 65.45513203 321.8125 69.3125 C322.4007959 70.10567627 322.9890918 70.89885254 323.59521484 71.71606445 C324.79681346 73.33520636 325.99896391 74.95393887 327.20166016 76.57226562 C328.98072076 78.97397329 330.74817305 81.38375745 332.51171875 83.796875 C338.83997282 92.44876412 345.27447502 100.99760078 351.88623047 109.43505859 C355.69860534 114.30517746 359.4350195 119.22415244 363.125 124.1875 C367.9634282 130.68545862 372.96885581 137.03050588 378.0546875 143.3359375 C380.96656175 146.94743038 383.83029479 150.59520217 386.6875 154.25 C391.37509591 160.2362373 396.16408448 166.13276916 401 172 C402.50071175 173.83275076 404.00070638 175.66608895 405.5 177.5 C406.24636719 178.41136719 406.99273438 179.32273437 407.76171875 180.26171875 C409.22607956 182.05319681 410.68715531 183.84736638 412.14453125 185.64453125 C416.8567239 191.44349987 421.67230316 197.14073056 426.55126953 202.79907227 C429.6540084 206.40507835 432.69444009 210.05176891 435.6875 213.75 C439.24329092 218.13227205 442.96732531 222.31959762 446.76953125 226.48828125 C448.99519351 228.99458744 451.09521561 231.56924393 453.1875 234.1875 C458.09351653 240.2575099 463.43003513 245.88977476 468.78125 251.56640625 C471.65084564 254.61371372 474.42433795 257.72781014 477.15234375 260.90234375 C480.27614025 264.44881039 483.51073373 267.8946215 486.73876953 271.34619141 C489.63854615 274.46238343 492.38475868 277.63576356 495 281 C491.75181635 288.76351587 483.66517919 294.5317194 477.3828125 299.8984375 C474.07776784 302.81337853 470.89264683 305.85108118 467.6875 308.875 C462.49125555 313.76407413 457.18658412 318.40420795 451.609375 322.859375 C448.81568484 325.15120465 446.15791222 327.55231812 443.5 330 C438.17025607 334.89374231 432.63229749 339.46107316 427 344 C425.78172437 344.99768805 424.56432693 345.99644911 423.34765625 346.99609375 C414.40604276 354.3297121 405.32058595 361.4469585 396.09375 368.41796875 C394.04941626 369.96266122 392.00898474 371.51239978 389.96875 373.0625 C354.83440303 399.68021555 317.68178211 424.02956828 278.67675781 444.58154297 C276.20784008 445.8898622 273.75422598 447.2222495 271.3046875 448.56640625 C211.94107948 480.90618621 131.79801308 512.01147312 63.69311523 493.40795898 C50.1293119 489.38092109 38.4396736 482.53402368 28 473 C26.86691406 471.98873047 26.86691406 471.98873047 25.7109375 470.95703125 C-18.63382904 429.19773696 -29.32317085 354.84465632 -33 297 C-33.08612549 295.6895874 -33.17225098 294.3791748 -33.26098633 293.02905273 C-34.08077443 279.7086565 -34.20175015 266.40514882 -34.1875 253.0625 C-34.18656342 251.9205014 -34.18562683 250.77850281 -34.18466187 249.60189819 C-34.03638701 165.65422893 -20.98311887 81.21523708 0 0 Z " fill="#000000" transform="translate(639,1605)"/>
<path d="M0 0 C19.55904205 74.8850855 30.3639553 152.63540259 32 230 C32.02336426 231.05622559 32.04672852 232.11245117 32.07080078 233.20068359 C33.57030368 312.19550444 26.38297748 413.96229402 -31 474 C-31.68320313 474.75796875 -32.36640625 475.5159375 -33.0703125 476.296875 C-49.20064673 493.55811827 -72.99950727 501.45299816 -96.171875 502.91015625 C-97.57179688 502.95462891 -97.57179688 502.95462891 -99 503 C-100.22203125 503.03996094 -101.4440625 503.07992187 -102.703125 503.12109375 C-171.45564092 504.57726167 -240.60797084 472.74841427 -298.25830078 437.66357422 C-301.02371439 435.98561088 -303.80467225 434.33632999 -306.58984375 432.69140625 C-328.49493579 419.6691623 -349.52854041 405.16589794 -370 390 C-371.21308838 389.1035376 -371.21308838 389.1035376 -372.45068359 388.18896484 C-382.27184215 380.91812429 -391.97461292 373.52824072 -401.47265625 365.83984375 C-404.45679435 363.42584922 -407.47823443 361.06388503 -410.51098633 358.71142578 C-416.06895801 354.39550523 -421.39544197 349.9435109 -426.578125 345.17578125 C-429.13257166 342.88089933 -431.76472107 340.71808866 -434.4375 338.5625 C-439.27093004 334.65069857 -443.8767275 330.53998996 -448.453125 326.33203125 C-450.58941749 324.37594748 -452.74780657 322.45812303 -454.9375 320.5625 C-459.8344144 316.3025826 -464.5988996 311.8988021 -469.37060547 307.5 C-471.03726259 305.96569653 -472.70777523 304.43567833 -474.37890625 302.90625 C-480.38681553 297.39798956 -486.31213484 291.8425201 -492 286 C-489.45933326 281.18562063 -485.98063227 277.58273336 -482.25 273.6875 C-480.97573899 272.33931955 -479.70229064 270.99037049 -478.4296875 269.640625 C-477.52621582 268.68446289 -477.52621582 268.68446289 -476.60449219 267.70898438 C-473.64100996 264.55250604 -470.80965836 261.29304044 -468 258 C-467.11353572 256.96722944 -466.22678965 255.93470072 -465.33984375 254.90234375 C-462.75167489 251.88799344 -460.16796443 248.8698508 -457.58496094 245.85107422 C-456.03988485 244.04658148 -454.49297021 242.24368504 -452.9453125 240.44140625 C-439.74183959 225.10708811 -439.74183959 225.10708811 -426.94140625 209.4375 C-424.91945301 206.89887058 -422.87027731 204.3846667 -420.8125 201.875 C-419.20826287 199.91672433 -417.60406141 197.9584196 -416 196 C-415.25459961 195.09024414 -415.25459961 195.09024414 -414.49414062 194.16210938 C-408.09766149 186.34765314 -401.77675008 178.49506209 -395.65234375 170.46484375 C-393.10213279 167.12241039 -390.51559549 163.80898255 -387.92749023 160.49584961 C-376.61139555 146.00395265 -365.67659375 131.24119077 -354.78662109 116.42773438 C-353.01285994 114.01747461 -351.23556356 111.60986576 -349.45703125 109.203125 C-338.4601002 94.31811304 -327.58124681 79.36027882 -317.01953125 64.16235352 C-315.92237838 62.5860165 -314.80242347 61.0253298 -313.66137695 59.48046875 C-311.90217683 57.01277878 -311.90217683 57.01277878 -310.71948242 54.06640625 C-308.84364409 50.37483899 -307.36210256 48.46930104 -304 46 C-296.87823212 43.76940091 -289.21986038 43.58782602 -281.81896973 43.12194824 C-277.84831394 42.86932577 -273.88503786 42.55686531 -269.92089844 42.21972656 C-269.24043898 42.16196297 -268.55997952 42.10419937 -267.85890007 42.04468536 C-266.46252417 41.92592578 -265.06617158 41.80689182 -263.66984177 41.68759155 C-261.52060635 41.50592226 -259.37093597 41.33041096 -257.22109985 41.15600586 C-241.00646015 39.8257932 -224.88339721 37.82711655 -208.75 35.75 C-207.24954353 35.55789194 -205.74908576 35.36579399 -204.24862671 35.17370605 C-141.64017677 27.13437151 -79.29685973 16.86867827 -17.70263672 2.99609375 C-16.79902908 2.79352463 -15.89542145 2.59095551 -14.96443176 2.38224792 C-13.29559417 2.00693798 -11.62762132 1.62775205 -9.96073914 1.24385071 C-6.52184447 0.46873042 -3.54636234 0 0 0 Z " fill="#000000" transform="translate(1762,1601)"/>
<path d="M0 0 C56.93853422 -1.5001844 112.99266165 21.20589506 163.02734375 46.15625 C164.04650879 46.66381836 165.06567383 47.17138672 166.11572266 47.69433594 C196.25917333 62.80658308 225.57065079 80.35414353 253.12207031 99.81152344 C255.11415735 101.21752233 257.11323869 102.61315765 259.11328125 104.0078125 C281.14953092 119.41629145 302.48887471 135.684299 323.28320312 152.72802734 C324.85643299 154.01629648 326.43382623 155.29947725 328.01171875 156.58203125 C337.72995702 164.48863262 347.29536359 172.53650021 356.55859375 180.97265625 C359.19525424 183.30476576 361.90857941 185.51393937 364.65234375 187.71875 C368.7429544 191.02690911 372.47982762 194.49706337 376.14453125 198.265625 C378.58579259 200.71701605 381.17535669 202.95960545 383.796875 205.21484375 C388.27794575 209.11518029 392.64160004 213.14942164 397.02734375 217.15625 C396.48089271 221.06954453 394.72798762 222.74343985 391.90234375 225.40625 C388.40521661 228.78790596 385.13883265 232.23681758 381.97265625 235.92578125 C379.54010279 238.71491383 377.03536723 241.43524525 374.52734375 244.15625 C367.79849266 251.47228058 361.31340379 258.97951403 354.85180664 266.53076172 C351.09360434 270.92045334 347.31546562 275.29236537 343.52734375 279.65625 C334.2238051 290.38158728 324.9716888 301.12762638 316.02734375 312.15625 C314.61138055 313.88599276 313.19469645 315.61514561 311.77734375 317.34375 C310.19347678 319.28081379 308.61020017 321.21836036 307.02734375 323.15625 C306.53717773 323.75598633 306.04701172 324.35572266 305.54199219 324.97363281 C298.39474417 333.72383726 291.32813557 342.52927691 284.37451172 351.43408203 C283.00338937 353.18687236 281.62749571 354.93580868 280.25 356.68359375 C274.62920628 363.8157455 269.0490194 370.97739308 263.53222656 378.19042969 C262.4365113 379.62175664 261.33930464 381.05194225 260.24121094 382.48144531 C252.08023096 393.10673731 244.04562755 403.80081157 236.2421875 414.69140625 C234.02750781 417.77859749 231.78941464 420.84681339 229.53125 423.90234375 C228.94375977 424.69761475 228.35626953 425.49288574 227.75097656 426.31225586 C226.56721932 427.90715679 225.37781838 429.49788546 224.18261719 431.08422852 C221.26748101 434.98037349 218.53462969 438.88294573 216.0390625 443.0625 C215.55123291 443.8455249 215.06340332 444.6285498 214.56079102 445.43530273 C213.65867969 446.89785209 212.79647006 448.38624636 211.98803711 449.90258789 C209.81096603 453.35658278 208.06713229 454.87620098 204.07861328 455.95043945 C200.61239511 456.40423339 197.17652884 456.71186689 193.69073486 456.95205688 C188.44871617 457.35394458 183.2286851 457.98680572 178.00390625 458.56640625 C175.52897194 458.83246932 173.05395262 459.09774254 170.57885742 459.36230469 C92.85474091 467.73036001 15.26863044 478.8948082 -78.80712891 499.17675781 C-79.96390137 499.44069336 -81.12067383 499.70462891 -82.3125 499.9765625 C-83.29597412 500.20617676 -84.27944824 500.43579102 -85.29272461 500.67236328 C-87.91736974 501.1462675 -90.31239851 501.24763867 -92.97265625 501.15625 C-95.16882097 494.93548083 -96.90175876 488.71347449 -98.35546875 482.28125 C-98.67876411 480.86949997 -98.67876411 480.86949997 -99.0085907 479.42922974 C-99.71214197 476.33981161 -100.40634571 473.2484293 -101.09765625 470.15625 C-101.33809662 469.08324646 -101.57853699 468.01024292 -101.82626343 466.90472412 C-111.85231332 421.9732132 -119.42810371 376.69320916 -124.22265625 330.90625 C-124.33862656 329.81325592 -124.33862656 329.81325592 -124.4569397 328.69818115 C-127.27712543 301.75059367 -128.35635681 274.87510994 -128.29071426 247.79991531 C-128.28505589 245.42665794 -128.28224726 243.05340776 -128.27963257 240.68014526 C-128.24341033 218.05851223 -127.94315361 195.61596797 -124.97265625 173.15625 C-124.79381445 171.7588058 -124.61510734 170.36134436 -124.43652344 168.96386719 C-117.8794039 118.44631034 -105.82966027 65.31177992 -69.97265625 27.15625 C-69.43382812 26.54136719 -68.895 25.92648437 -68.33984375 25.29296875 C-53.2542286 8.80492204 -28.62681851 1.57596983 -6.9140625 0.25 C-4.60903939 0.17653313 -2.30441188 0.09063567 0 0 Z " fill="#000000" transform="translate(733.97265625,298.84375)"/>
<path d="M0 0 C4.20615051 3.84543928 7.95337288 7.91416132 11.55078125 12.33203125 C12.30617188 13.255 13.0615625 14.17796875 13.83984375 15.12890625 C28.11517109 33.82168016 37.55611927 56.02501847 44.55078125 78.33203125 C45.02354492 79.83467529 45.02354492 79.83467529 45.50585938 81.36767578 C59.09059595 125.37626655 63.49984495 171.46862144 64.55078125 217.33203125 C64.57414551 218.31381348 64.59750977 219.2955957 64.62158203 220.30712891 C66.14425755 295.99305887 55.22993334 371.74467313 39.80078125 445.64453125 C39.61623383 446.5290094 39.4316864 447.41348755 39.24154663 448.32476807 C36.92073234 459.39274767 34.38017234 470.38289704 31.55078125 481.33203125 C30.85938553 481.18106491 30.16798981 481.03009857 29.4556427 480.8745575 C-49.08335084 463.7500011 -127.98999955 450.0204385 -254.45385742 435.52197266 C-255.18035995 435.45349121 -255.90686249 435.38500977 -256.65538025 435.31445312 C-258.54737594 435.13681701 -260.44016218 434.9676545 -262.33300781 434.79931641 C-266.27387129 434.20837213 -269.2713133 433.61998196 -272.01977539 430.61474609 C-272.46184326 429.93105957 -272.90391113 429.24737305 -273.359375 428.54296875 C-273.86815186 427.77428467 -274.37692871 427.00560059 -274.90112305 426.21362305 C-275.43261963 425.38644775 -275.96411621 424.55927246 -276.51171875 423.70703125 C-277.66234339 421.96934987 -278.81604721 420.23370389 -279.97265625 418.5 C-280.55241211 417.62907715 -281.13216797 416.7581543 -281.72949219 415.86083984 C-284.24850546 412.15670307 -286.92257607 408.58203663 -289.63671875 405.01953125 C-293.23861312 400.2804416 -296.77297006 395.51213284 -300.19921875 390.64453125 C-305.75231402 382.78231868 -311.63011626 375.1692545 -317.48046875 367.52734375 C-320.95773401 362.98387287 -324.40004067 358.41558556 -327.82421875 353.83203125 C-332.97142019 346.95081008 -338.17585611 340.11706375 -343.44921875 333.33203125 C-343.87525391 332.78369629 -344.30128906 332.23536133 -344.74023438 331.67041016 C-351.20254944 323.36753203 -357.79696227 315.17784461 -364.4453125 307.0234375 C-366.88038054 304.03560067 -369.29659288 301.03356092 -371.69921875 298.01953125 C-378.13149103 289.96240522 -384.68974114 282.01895936 -391.36694336 274.16430664 C-394.22731134 270.79410109 -397.0415586 267.39203663 -399.82421875 263.95703125 C-404.47007979 258.25115201 -409.29128993 252.70651972 -414.125 247.16015625 C-416.26337149 244.70459816 -418.38654875 242.23758571 -420.4921875 239.75390625 C-426.66545324 232.47493552 -433.02286701 225.41534796 -439.546875 218.44921875 C-442.34967913 215.45203671 -445.06893198 212.39168342 -447.75 209.28515625 C-451.25987751 205.25081428 -454.86399085 201.29935827 -458.44921875 197.33203125 C-453.25478212 191.124046 -447.84923677 185.3607397 -441.7109375 180.07421875 C-437.57900967 176.47685433 -433.6046719 172.73314453 -429.63671875 168.95703125 C-424.28201449 163.89498799 -418.85415015 159.09464128 -413.08984375 154.50390625 C-410.10826093 152.05159848 -407.2736508 149.46113044 -404.44921875 146.83203125 C-399.87002476 142.57661865 -395.15634708 138.55879504 -390.28515625 134.63671875 C-387.74673768 132.57381661 -385.25044571 130.47318039 -382.7644043 128.34814453 C-375.4875734 122.12894812 -368.02495499 116.18199791 -360.44921875 110.33203125 C-359.79969238 109.82945801 -359.15016602 109.32688477 -358.48095703 108.80908203 C-341.17539599 95.43717127 -323.59278498 82.54529422 -305.44921875 70.33203125 C-304.16274136 69.46096565 -302.87628195 68.58987348 -301.58984375 67.71875 C-286.22916112 57.35836411 -270.52346386 47.54543615 -254.44921875 38.33203125 C-253.53962402 37.80883301 -252.6300293 37.28563477 -251.69287109 36.74658203 C-204.45011438 9.65802469 -153.77109941 -13.71419648 -99.44921875 -21.66796875 C-98.6814209 -21.78366211 -97.91362305 -21.89935547 -97.12255859 -22.01855469 C-62.3048815 -27.09911636 -27.53375216 -23.38974315 0 0 Z " fill="#000000" transform="translate(1725.44921875,320.66796875)"/>
<path d="M0 0 C9.87655674 1.64273342 19.23973077 4.75805339 28.75 7.8125 C29.6481543 8.09966888 30.54630859 8.38683777 31.47167969 8.68270874 C102.06167059 31.26693378 172.09455793 57.97620866 236.28955078 95.42041016 C239.00785784 97.00457938 241.73576743 98.57119077 244.46484375 100.13671875 C270.06858435 114.9298896 294.5217068 131.68727454 317.2734375 150.57763672 C318.78245014 151.82077977 320.31152349 153.03949046 321.84375 154.25390625 C335.93144066 165.43494989 349.40246479 178.23589228 361 192 C361.46180664 192.54269531 361.92361328 193.08539062 362.39941406 193.64453125 C386.50827021 222.09389529 403.87254421 253.721524 401 292 C400.28264409 297.54165939 398.78416573 302.70325798 397 308 C396.79632812 308.63776367 396.59265625 309.27552734 396.3828125 309.93261719 C388.89449871 333.19492531 374.48409844 353.42132893 358.34472656 371.4921875 C357.143345 372.83927038 355.95731214 374.20000568 354.7734375 375.5625 C345.59546173 386.01233009 335.68425968 396.08627478 325 405 C324.08605469 405.79148437 323.17210938 406.58296875 322.23046875 407.3984375 C266.75242656 455.31169056 200.19619638 490.51519812 133 519 C131.28852783 519.72727295 131.28852783 519.72727295 129.54248047 520.46923828 C121.74053199 523.76292761 113.89051217 526.92494115 106 530 C105.30318115 530.27158936 104.6063623 530.54317871 103.88842773 530.82299805 C83.39050904 538.79253109 62.74164646 546.23956669 41.875 553.1875 C40.92691467 553.50360229 39.97882935 553.81970459 39.00201416 554.14538574 C9.36393579 564 9.36393579 564 4 564 C3.48953125 562.39958862 3.48953125 562.39958862 2.96875 560.7668457 C-25.50053629 471.69194323 -60.48929129 385.09029532 -100.02734375 300.375 C-100.50929199 299.32957031 -100.99124023 298.28414062 -101.48779297 297.20703125 C-102.54858428 294.95734531 -103.65035222 292.72674259 -104.78173828 290.51171875 C-105.35005371 289.37347656 -105.91836914 288.23523437 -106.50390625 287.0625 C-107.02927979 286.04285156 -107.55465332 285.02320313 -108.09594727 283.97265625 C-109.25856845 280.1497895 -108.6015761 278.61812843 -107 275 C-106.53464844 273.93491211 -106.06929687 272.86982422 -105.58984375 271.77246094 C-105.04457031 270.60489258 -104.49929688 269.43732422 -103.9375 268.234375 C-103.30838849 266.87822538 -102.67957859 265.52193582 -102.05102539 264.16552734 C-101.71797394 263.44919128 -101.38492249 262.73285522 -101.04177856 261.99481201 C-91.63172521 241.7181414 -82.79750821 221.20632121 -74.10418701 200.61401367 C-73.02871137 198.06797028 -71.95042984 195.52313163 -70.87158203 192.97851562 C-52.76807245 150.22827241 -36.24590113 106.84806152 -21 63 C-20.70867187 62.16277405 -20.41734375 61.3255481 -20.1171875 60.46295166 C-13.13979906 40.39479527 -6.33068504 20.28277731 0 0 Z " fill="#000000" transform="translate(1824,919)"/>
<path d="M0 0 C1.28034119 0.00031723 1.28034119 0.00031723 2.58654785 0.00064087 C16.74793165 0.03553008 30.23737839 1.13938981 44.0625 4.375 C44.89007812 4.55691895 45.71765625 4.73883789 46.5703125 4.92626953 C92.86482156 15.20475279 135.34302919 44.0214886 163.0625 82.375 C163.47274414 82.93558105 163.88298828 83.49616211 164.30566406 84.07373047 C181.4181482 107.71009514 192.55101454 134.80286121 198.0625 163.375 C198.22621094 164.21901367 198.38992188 165.06302734 198.55859375 165.93261719 C202.93333905 189.62312839 202.64594669 214.74498643 198.0625 238.375 C197.89621094 239.23706055 197.72992187 240.09912109 197.55859375 240.98730469 C187.26555941 292.31904817 156.44652124 338.77964829 112.81884766 367.87109375 C63.69633164 399.76635926 8.65790228 408.18258489 -48.27734375 396.50390625 C-72.28234743 391.02052977 -96.13877407 380.00004426 -115.9375 365.375 C-116.97519531 364.61960937 -118.01289062 363.86421875 -119.08203125 363.0859375 C-127.21410297 357.05984831 -134.63581923 350.37233839 -141.9375 343.375 C-142.68902344 342.66472656 -143.44054688 341.95445312 -144.21484375 341.22265625 C-177.73517513 308.76435517 -199.6227692 259.04794344 -200.9375 212.375 C-200.96328125 211.60736328 -200.9890625 210.83972656 -201.015625 210.04882812 C-202.08116872 174.21992059 -195.08008604 138.82514525 -177.91113281 107.17041016 C-176.97248826 105.43951948 -176.05991886 103.69456624 -175.1484375 101.94921875 C-166.15119547 85.35217867 -154.28260822 70.6582358 -140.9375 57.375 C-140.15173584 56.58536865 -140.15173584 56.58536865 -139.35009766 55.77978516 C-102.69736744 19.31187803 -51.29283885 -0.11791887 0 0 Z " fill="#FFFFFF" transform="translate(1197.9375,997.625)"/>
<path d="M0 0 C0.66 0 1.32 0 2 0 C23.9519621 49.88822987 44.01177236 100.54771718 62 152 C62.3015802 152.86220154 62.6031604 153.72440308 62.91387939 154.61273193 C64.7661675 159.91402478 66.60837537 165.21869721 68.43859863 170.52764893 C69.01494642 172.19941175 69.59247558 173.87076782 70.17126465 175.54168701 C70.96956419 177.85028773 71.76123142 180.16105068 72.55078125 182.47265625 C72.78547623 183.14894577 73.0201712 183.82523529 73.26197815 184.52201843 C74.55192182 188.32773641 75.45400229 192.01894283 76 196 C16.74243828 209.75830352 -43.22418317 219.99237002 -103.5 228.125 C-104.61294434 228.27560883 -105.72588867 228.42621765 -106.87255859 228.58139038 C-109.98722296 229.00016364 -113.10269041 229.41206343 -116.21875 229.8203125 C-117.58296082 230.00230446 -117.58296082 230.00230446 -118.97473145 230.18797302 C-123.35080561 230.75009059 -127.57607816 231.13655196 -132 231 C-128.01435782 223.4903065 -123.74246276 216.23892278 -119.1875 209.0625 C-105.36253145 187.09393872 -92.05268638 164.83513837 -78.98730469 142.40869141 C-77.1232663 139.21143049 -75.25412917 136.01722378 -73.3828125 132.82421875 C-54.56169503 100.68769695 -36.40427129 68.22134529 -18.81787109 35.39306641 C-17.1860978 32.34735257 -15.55254494 29.30260416 -13.91822815 26.258255 C-12.53124433 23.67440908 -11.14492051 21.09020954 -9.75881958 18.50588989 C-9.09248404 17.26354309 -8.42604319 16.02125277 -7.75949097 14.77902222 C-6.83385554 13.05352231 -5.90909686 11.32755217 -4.984375 9.6015625 C-4.45553711 8.61494629 -3.92669922 7.62833008 -3.38183594 6.61181641 C-2.22312786 4.42173532 -1.09561327 2.2221352 0 0 Z " fill="#000000" transform="translate(1659,1312)"/>
<path d="M0 0 C2.39791603 3.01373537 4.18619306 6.09469395 5.93359375 9.5234375 C6.49353027 10.6151123 7.0534668 11.70678711 7.63037109 12.83154297 C8.22672363 14.00088379 8.82307617 15.17022461 9.4375 16.375 C10.70639553 18.84542556 11.9794223 21.31370342 13.25390625 23.78125 C13.73277283 24.7086348 13.73277283 24.7086348 14.22131348 25.65475464 C18.46124089 33.84749435 22.89492406 41.93156923 27.3515625 50.0078125 C28.84667964 52.72169812 30.33549549 55.43895236 31.82194519 58.15759277 C39.02009151 71.31887834 46.31889273 84.40273062 53.92797852 97.33251953 C57.80634321 103.92689526 61.58039019 110.57197451 65.3125 117.25 C71.29137511 127.91862473 77.61953481 138.3576589 83.99732971 148.7901001 C87.43280394 154.41038549 90.81843522 160.05308793 94.125 165.75 C99.85000461 175.57882319 105.94162146 185.18023067 111.99609375 194.80810547 C114.05549754 198.0883985 116.10705974 201.37347421 118.15625 204.66015625 C119.16909058 206.28425415 119.16909058 206.28425415 120.20239258 207.94116211 C121.49436104 210.01330092 122.78588818 212.08571497 124.0769043 214.15844727 C127.66567953 219.91248318 127.66567953 219.91248318 131.42578125 225.5546875 C133 228 133 228 133 230 C68.2895058 223.94224873 4.05126082 212.9249617 -59.59765625 199.96875 C-60.51057434 199.7837645 -61.42349243 199.59877899 -62.36407471 199.40818787 C-63.19920593 199.23674759 -64.03433716 199.06530731 -64.89477539 198.88867188 C-65.61951553 198.7403894 -66.34425568 198.59210693 -67.09095764 198.43933105 C-69 198 -69 198 -72 197 C-70.68445032 189.29201992 -68.54204171 182.02809776 -66.0625 174.62109375 C-65.67053436 173.43682297 -65.27856873 172.25255219 -64.87472534 171.03239441 C-63.81184245 167.83040732 -62.74291886 164.63060234 -61.66933441 161.43219757 C-60.99491074 159.42233338 -60.32229273 157.4118718 -59.64996338 155.40130615 C-43.63395847 107.54867902 -25.94113209 60.23207706 -6.4375 13.6875 C-6.02291031 12.69734894 -6.02291031 12.69734894 -5.59994507 11.68719482 C-1.19382295 1.19382295 -1.19382295 1.19382295 0 0 Z " fill="#000000" transform="translate(738,1315)"/>
<path d="M0 0 C0.96684723 0.02505615 1.93369446 0.0501123 2.92984009 0.07592773 C81.47565768 2.10090177 159.96368119 3.17781617 238.50439453 0.30712891 C247.67322173 -0.02095093 256.8264474 -0.11187259 266 0 C261.74098414 6.58564514 257.16292771 12.853482 252.375 19.0625 C250.94996497 20.92014663 249.52549066 22.77822353 248.1015625 24.63671875 C247.40450195 25.54599121 246.70744141 26.45526367 245.98925781 27.39208984 C243.21335761 31.03128547 240.48142722 34.70239655 237.75 38.375 C232.95137673 44.80791942 227.98368869 51.08977098 222.9453125 57.3359375 C220.03343825 60.94743038 217.16970521 64.59520217 214.3125 68.25 C209.62487211 74.23627814 204.83411237 80.13124848 200 86 C198.54155659 87.79157706 197.08322483 89.58324502 195.625 91.375 C191.82895506 96.01754973 187.96604477 100.59917048 184.08203125 105.16796875 C181.2217818 108.5381234 178.40758766 111.9400841 175.625 115.375 C167.47213832 125.38012184 158.92825947 135.05192969 150.21484375 144.5703125 C145.33245831 149.92629793 140.61170788 155.41005105 136 161 C131.82183742 159.40596167 129.27696378 156.31627367 126.375 153.0625 C125.85010986 152.48346924 125.32521973 151.90443848 124.78442383 151.30786133 C123.70590261 150.11726903 122.62981164 148.92447075 121.55615234 147.72949219 C120.12431758 146.13816532 118.68396785 144.55530065 117.23828125 142.9765625 C109.93850344 134.99487589 102.85609767 126.84304737 95.82470703 118.62573242 C92.06638078 114.23599344 88.28800236 109.86414164 84.5 105.5 C82.86728394 103.61624655 81.23486338 101.73223745 79.60253906 99.84814453 C78.54814591 98.63215486 77.49283208 97.4169628 76.43652344 96.20263672 C70.48276348 89.35486773 64.70163134 82.42338766 59.14404297 75.24975586 C55.8802253 71.05918237 52.48185417 67.01059467 49 63 C43.56874772 56.73592657 38.4228082 50.28517475 33.34570312 43.73242188 C31.58368251 41.4640441 29.80641018 39.20788648 28.02856445 36.9519043 C21.55127162 28.73176806 15.12553168 20.47131703 8.71289062 12.20068359 C7.48769425 10.62657867 6.25654309 9.05710142 5.02148438 7.49072266 C4.38017578 6.67522949 3.73886719 5.85973633 3.078125 5.01953125 C2.19495605 3.90155151 2.19495605 3.90155151 1.29394531 2.76098633 C0 1 0 1 0 0 Z " fill="#000000" transform="translate(1067,1656)"/>
<path d="M0 0 C6.7526516 3.03060181 11.31553787 9.27030571 16.05859375 14.77734375 C18.28804061 17.32976883 20.58001382 19.81887514 22.875 22.3125 C26.18336914 25.93523905 29.36012358 29.61692891 32.4375 33.4375 C35.65945291 37.43226701 39.00680102 41.24529425 42.5 45 C46.7295128 49.55110161 50.72080318 54.2429733 54.6171875 59.08203125 C57.37542466 62.45974135 60.21275315 65.76204599 63.0625 69.0625 C67.07775493 73.72279588 71.00593421 78.43048727 74.8203125 83.2578125 C77.06736781 86.08475305 79.34424887 88.88544014 81.62695312 91.68359375 C88.17948533 99.71670971 94.62913601 107.82231721 101 116 C101.55333008 116.70946777 102.10666016 117.41893555 102.67675781 118.14990234 C109.41577186 126.79228784 116.13743491 135.44753898 122.80078125 144.1484375 C125.433661 147.56229579 128.11652301 150.93503664 130.8203125 154.29296875 C132 156 132 156 132 158 C121.40350248 158.11876523 110.83967423 157.96392586 100.25 157.5625 C32.28687087 155.09013271 -35.85050247 155.11376987 -103.81030273 157.69287109 C-112.8770829 158.02921164 -121.92822236 158.10929853 -131 158 C-126.31881521 150.53380653 -120.92959917 143.70214553 -115.44677734 136.82177734 C-114.05647187 135.0711092 -112.67642037 133.31298856 -111.30078125 131.55078125 C-105.89228986 124.62328405 -100.39807191 117.77277519 -94.83862305 110.96582031 C-91.31545114 106.64422987 -87.85864099 102.27759553 -84.4375 97.875 C-80.22178765 92.46127533 -75.8296858 87.22619805 -71.33959961 82.03857422 C-68.33714041 78.56861082 -65.39101911 75.06419865 -62.5 71.5 C-57.62888492 65.50545658 -52.59493198 59.65753321 -47.55273438 53.80712891 C-46.01354018 52.01575856 -44.48212881 50.21804113 -42.953125 48.41796875 C-37.2467307 41.70797894 -31.42992646 35.13057365 -25.44921875 28.6640625 C-22.87425727 25.8632272 -20.37334928 23.00835979 -17.8828125 20.1328125 C-14.97261181 16.83619512 -11.98493632 13.61017889 -8.99414062 10.38671875 C-5.8773934 7.01212741 -2.91569333 3.54725146 0 0 Z " fill="#000000" transform="translate(1198,587)"/>
<path d="M0 0 C15.62449273 1.45633782 31.11135225 3.65691769 46.625 6 C48.57135849 6.29295456 48.57135849 6.29295456 50.55703735 6.59182739 C101.69935022 14.30526277 152.54045041 23.63091918 203 35 C202.42533074 41.92807198 200.55481241 48.06091091 198.34375 54.6328125 C197.78293983 56.32568138 197.78293983 56.32568138 197.21080017 58.05274963 C196.19447351 61.11041205 195.17076612 64.16545065 194.14185715 67.21889877 C193.49587445 69.1372515 192.85229446 71.05639605 192.20925903 72.97573853 C183.98347783 97.50865041 175.25410589 121.83525575 166 146 C165.44829132 147.44085968 165.44829132 147.44085968 164.88543701 148.91082764 C154.70379818 175.46148069 144.09703696 201.81893697 133 228 C130.1670723 225.50038908 128.63777483 222.75241933 126.8828125 219.42578125 C126.28259277 218.29551514 125.68237305 217.16524902 125.06396484 216.00073242 C124.74820496 215.40005951 124.43244507 214.7993866 124.1071167 214.18051147 C123.11108059 212.28602491 122.10850418 210.39513786 121.10400391 208.50512695 C119.72828372 205.9161824 118.35458414 203.32618349 116.98242188 200.73535156 C108.98031717 185.64121957 100.74914423 170.6827146 92.3046875 155.83203125 C90.06036866 151.88216329 87.83793049 147.92110323 85.6328125 143.94921875 C78.27822562 130.7073988 70.69157124 117.62661829 62.93359375 104.6171875 C59.2632069 98.45896461 55.65760685 92.26485972 52.0625 86.0625 C44.23386396 72.59129115 36.13391851 59.28810304 28 46 C27.64899231 45.4262262 27.29798462 44.85245239 26.93634033 44.2612915 C19.20282136 31.6206924 11.44182207 18.99998976 3.4519043 6.51928711 C0 1.10457095 0 1.10457095 0 0 Z " fill="#000000" transform="translate(1527,859)"/>
<path d="M0 0 C-1.2683552 3.39506587 -2.72244058 6.34964901 -4.6953125 9.38671875 C-5.23760498 10.22831543 -5.77989746 11.06991211 -6.33862305 11.93701172 C-6.92812744 12.84467285 -7.51763184 13.75233398 -8.125 14.6875 C-22.20590702 36.60980458 -35.59927411 58.92845204 -48.84765625 81.359375 C-50.73610089 84.55571769 -52.63219818 87.74744544 -54.53125 90.9375 C-72.73322306 121.54613707 -90.15090711 152.6284575 -107 184 C-107.30804565 184.57355225 -107.61609131 185.14710449 -107.93347168 185.73803711 C-115.31248702 199.47943253 -122.67103177 213.23184243 -130 227 C-130.66 227 -131.32 227 -132 227 C-155.35959064 171.89184026 -175.96095504 115.73542968 -195 59 C-195.41491699 57.76604492 -195.82983398 56.53208984 -196.25732422 55.26074219 C-197.30896794 52.11522873 -198.34641975 48.96561851 -199.375 45.8125 C-199.66753662 44.93392334 -199.96007324 44.05534668 -200.26147461 43.15014648 C-202.1173091 37.35192729 -202.1173091 37.35192729 -201 34 C-198.23069856 33.13239498 -195.59982389 32.48163815 -192.765625 31.90625 C-191.89084 31.7185202 -191.01605499 31.53079041 -190.11476135 31.33737183 C-187.16281204 30.70973666 -184.20689098 30.10389913 -181.25 29.5 C-179.14542582 29.06201465 -177.04085227 28.6240263 -174.9362793 28.18603516 C-123.46157276 17.57250135 -71.57163815 9.08202508 -19.5 2 C-18.32812134 1.84038788 -18.32812134 1.84038788 -17.13256836 1.67755127 C-14.97427537 1.38544407 -12.81545285 1.09779551 -10.65625 0.8125 C-9.45806641 0.65394531 -8.25988281 0.49539063 -7.02539062 0.33203125 C-4 0 -4 0 0 0 Z " fill="#000000" transform="translate(869,859)"/>
</svg>
